# xmcd
#
# Track frame offsets:
#        150
#        18327
#        37087
#        58085
#        74238
#        98295
#        116777
#        137277
#        158559
#        183109
#        200477
#
# Disc length: 3023 seconds
#
# Revision: 0
# Processed by: cddbd v1.5.1PL2 Copyright (c) Steve Scherf et al.
# Submitted via: ExactAudioCopy v0.95b2
#
DISCID=910bcd0b
DTITLE=David Foster - THE BEST OF ME
DYEAR=1983
DGENRE=Pop
TTITLE0=Hard To Say I'm Sorry
TTITLE1=Our Romance
TTITLE2=Chaka
TTITLE3=The Dancer
TTITLE4=Heart Strings
TTITLE5=The Best Of Me
TTITLE6=Whatever We Imagine
TTITLE7=Mornin'
TTITLE8=Love, Look What You've Do To Me
TTITLE9=Night Music
TTITLE10=Love At Second Sight
EXTD=
EXTT0=
EXTT1=
EXTT2=
EXTT3=
EXTT4=
EXTT5=
EXTT6=
EXTT7=
EXTT8=
EXTT9=
EXTT10=
PLAYORDER=
